<?xml version="1.0" encoding="UTF-8" standalone="no"?>
<!-- Created with Inkscape (http://www.inkscape.org/) -->

<svg
   width="600"
   height="200"
   viewBox="0 0 158.75 52.916666"
   version="1.1"
   id="svg1"
   xml:space="preserve"
   inkscape:version="1.4 (e7c3feb1, 2024-10-09)"
   sodipodi:docname="beat-orientation-4th.svg"
   inkscape:export-batch-path="../attachments/attachments"
   inkscape:export-batch-name="beat-orientation-8th"
   xmlns:inkscape="http://www.inkscape.org/namespaces/inkscape"
   xmlns:sodipodi="http://sodipodi.sourceforge.net/DTD/sodipodi-0.dtd"
   xmlns:xlink="http://www.w3.org/1999/xlink"
   xmlns="http://www.w3.org/2000/svg"
   xmlns:svg="http://www.w3.org/2000/svg"><sodipodi:namedview
     id="namedview1"
     pagecolor="#ffffff"
     bordercolor="#000000"
     borderopacity="0.25"
     inkscape:showpageshadow="2"
     inkscape:pageopacity="0.0"
     inkscape:pagecheckerboard="0"
     inkscape:deskcolor="#d1d1d1"
     inkscape:document-units="mm"
     showgrid="false"
     inkscape:lockguides="false"
     inkscape:zoom="0.45289494"
     inkscape:cx="103.77683"
     inkscape:cy="291.45832"
     inkscape:window-width="1920"
     inkscape:window-height="1027"
     inkscape:window-x="1920"
     inkscape:window-y="25"
     inkscape:window-maximized="0"
     inkscape:current-layer="layer1"
     inkscape:export-bgcolor="#ffffffff"><inkscape:page
       x="0"
       y="0"
       width="158.75"
       height="52.916664"
       id="page24"
       margin="0"
       bleed="0" /><inkscape:page
       x="-0.045841701"
       y="54.5513"
       width="158.75"
       height="52.916664"
       id="page25"
       margin="0"
       bleed="0" /><inkscape:page
       x="0.27763265"
       y="110.97123"
       width="158.75"
       height="52.916664"
       id="page26"
       margin="0"
       bleed="0" /><inkscape:page
       x="1.1430207"
       y="166.58781"
       width="158.75"
       height="52.916664"
       id="page27"
       margin="0"
       bleed="0" /></sodipodi:namedview><defs
     id="defs1" /><g
     inkscape:label="Layer 1"
     inkscape:groupmode="layer"
     id="layer1"
     transform="translate(-0.56187398,-0.84281097)"><path
       style="fill:#000000;fill-opacity:1;stroke:#000000;stroke-opacity:1"
       d="m -141.66582,1.934534 c -3.28079,-1.22137 -4.90292,-3.73439 -4.16925,-6.45904 0.57576,-2.13821 2.27343,-3.4937398 4.37557,-3.4937398 2.27592,0 3.79233,1.1460098 4.24529,3.2083198 0.40461,1.84216 -1.23787,4.46346 -3.04553,4.86049 -1.07188,0.23542 -1.00822,0.59907 0.14266,0.81498 1.5589,0.29245 3.41644,-0.0199 4.74348,-0.79757 2.54153,-1.48944 3.02722,-4.16766 1.96482,-10.83449 -0.55288,-3.46944 -0.55288,-3.46944 -3.15631,-3.37908 -1.87893,0.0652 -3.03199,-0.0334 -4.14347,-0.35446 -4.02702,-1.16313 -7.32288,-3.81132 -9.02616,-7.25242 -0.88834,-1.7947 -0.97872,-2.18751 -1.06988,-4.65037 -0.22151,-5.98375 1.57574,-9.68025 7.69497,-15.82665 3.37231,-3.38729 3.37231,-3.38729 2.97763,-5.82083 -0.46258,-2.85214 -0.52243,-9.07677 -0.10658,-11.08562 0.50294,-2.4296 2.00952,-5.20635 3.78637,-6.97859 1.99223,-1.98707 2.61335,-2.19404 3.60585,-1.20153 1.67761,1.67761 3.01344,8.79509 2.42785,12.93594 -0.52695,3.72613 -2.42929,7.83302 -5.38693,11.62964 -0.70609,0.90638 -1.2838,1.92521 -1.2838,2.26407 0,0.33886 0.23813,1.91219 0.52917,3.4963 0.29104,1.5841 0.50019,3.08815 0.52917,2.92376 0.004,-0.0236 0.73391,0.12027 1.63091,0.21403 4.87842,0.50989 8.46547,4.69825 8.4486,9.86486 -0.007,2.30474 -0.64887,4.13558 -2.05401,5.86359 -1.31898,1.62204 -1.8171,2.04704 -3.32915,2.84048 -0.69122,0.36272 -1.2543,0.74677 -1.25128,0.85346 0.003,0.10669 0.24111,1.62273 0.5291,3.36898 1.24072,7.52322 0.36513,11.07625 -3.11205,12.62828 -1.60159,0.71487 -5.04101,0.90926 -6.49704,0.36721 z m 6.94612,-17.61286 c 0.33003,-0.20877 0.21923,-1.14554 -0.77405,-6.54438 -0.63756,-3.46541 -1.23309,-6.38958 -1.32339,-6.49814 -0.33508,-0.40287 -2.52765,1.01082 -3.30686,2.13214 -0.65575,0.94366 -0.79231,1.40126 -0.7896,2.64583 0.004,1.80765 0.59724,2.94473 2.03184,3.8941 0.96768,0.64038 1.34202,1.44988 0.66804,1.44461 -0.73669,-0.006 -3.04184,-1.29659 -3.6891,-2.06582 -2.46656,-2.93134 -1.88453,-7.87726 1.29599,-11.01284 0.67054,-0.66107 1.62666,-1.3493 2.12472,-1.5294 0.82237,-0.29737 0.8908,-0.40088 0.74482,-1.12663 -0.0884,-0.43955 -0.29321,-1.63262 -0.45513,-2.65126 -0.16191,-1.01865 -0.38574,-1.95429 -0.4974,-2.0792 -0.29247,-0.32717 -4.97709,4.43655 -6.2038,6.30854 -1.64166,2.50522 -2.3344,4.6428 -2.35929,7.28003 -0.027,2.86269 0.54546,4.5719 2.11658,6.31936 1.35043,1.50201 3.04387,2.57064 5.13371,3.2396 1.56442,0.50076 4.65128,0.64302 5.28292,0.24346 z m 3.2055,-1.1423 c 2.47198,-1.66587 3.58672,-6.25023 2.19298,-9.01862 -0.99212,-1.97067 -3.18312,-3.34566 -5.33118,-3.34566 -0.5329,0 -0.61721,0.10126 -0.4957,0.59531 0.0805,0.32742 0.57696,3.09562 1.10319,6.15156 0.52622,3.05594 1.00529,5.70508 1.06458,5.88698 0.153,0.46932 0.45099,0.41453 1.46613,-0.26957 z m -5.32058,-31.86245 c 1.60315,-1.82128 3.06982,-4.11418 3.73527,-5.83951 0.81818,-2.12131 0.98447,-5.66719 0.3255,-6.94071 -0.59419,-1.14832 -1.05007,-1.24544 -2.20205,-0.46912 -2.0299,1.36795 -3.41561,4.48289 -3.63456,8.17016 -0.15111,2.54464 0.12559,6.3211 0.46314,6.3211 0.12074,0 0.71145,-0.55887 1.3127,-1.24192 z"
       id="path2"
       sodipodi:nodetypes="sssssscsscsssssssssssssssssssssssscscsssssssssssssssssssssssss" /><g
       id="g28"
       transform="translate(4.0894326,-9.3472742)"><g
         id="g6"
         transform="translate(-47.761481,-156.79188)"
         style="fill:#000000;fill-opacity:1;stroke:#000000;stroke-opacity:1"><ellipse
           style="fill:#000000;fill-opacity:1;stroke:#000000;stroke-width:0.79375;stroke-dasharray:none;stroke-opacity:1;paint-order:markers stroke fill"
           id="path4"
           cx="-80.841469"
           cy="110.58803"
           rx="5.9968476"
           ry="3.9978986"
           transform="rotate(-37.923067)" /><path
           style="fill:#000000;fill-opacity:1;stroke:#000000;stroke-width:1.32292;stroke-dasharray:none;stroke-opacity:1;paint-order:markers stroke fill"
           d="M 9.2807321,135.42488 V 106.72952"
           id="path5"
           sodipodi:nodetypes="cc" /><ellipse
           style="fill:#000000;fill-opacity:1;stroke:#000000;stroke-width:0.79375;stroke-dasharray:none;stroke-opacity:1;paint-order:markers stroke fill"
           id="ellipse6"
           cx="-80.841469"
           cy="110.58803"
           rx="5.9968476"
           ry="3.9978986"
           transform="rotate(-37.923067)" /></g><g
         id="g8"
         transform="translate(-12.774747,-156.79188)"
         style="fill:#000000;fill-opacity:1;stroke:#000000;stroke-opacity:1"><ellipse
           style="fill:#000000;fill-opacity:1;stroke:#000000;stroke-width:0.79375;stroke-dasharray:none;stroke-opacity:1;paint-order:markers stroke fill"
           id="ellipse7"
           cx="-80.841469"
           cy="110.58803"
           rx="5.9968476"
           ry="3.9978986"
           transform="rotate(-37.923067)" /><path
           style="fill:#000000;fill-opacity:1;stroke:#000000;stroke-width:1.32292;stroke-dasharray:none;stroke-opacity:1;paint-order:markers stroke fill"
           d="M 9.2807321,135.42488 V 106.72952"
           id="path7"
           sodipodi:nodetypes="cc" /><ellipse
           style="fill:#000000;fill-opacity:1;stroke:#000000;stroke-width:0.79375;stroke-dasharray:none;stroke-opacity:1;paint-order:markers stroke fill"
           id="ellipse8"
           cx="-80.841469"
           cy="110.58803"
           rx="5.9968476"
           ry="3.9978986"
           transform="rotate(-37.923067)" /></g></g><path
       style="fill:#000000;fill-opacity:1;stroke:#000000;stroke-width:1.32292;stroke-linecap:square;stroke-linejoin:miter;stroke-dasharray:none;stroke-opacity:1;paint-order:markers stroke fill"
       d="M 72.249027,59.892569 V 105.40377"
       id="path13" /><path
       style="fill:#000000;fill-opacity:1;stroke:#000000;stroke-width:1.32292;stroke-linecap:square;stroke-linejoin:miter;stroke-dasharray:none;stroke-opacity:1;paint-order:markers stroke fill"
       d="m 71.964582,116.21268 v 45.5112"
       id="path18" /><path
       style="fill:#000000;fill-opacity:1;stroke:#000000;stroke-width:1.32292;stroke-linecap:square;stroke-linejoin:miter;stroke-dasharray:none;stroke-opacity:1;paint-order:markers stroke fill"
       d="m 71.964582,171.11056 v 45.5112"
       id="path19" /><path
       style="fill:#4f8ba8;stroke:none"
       d="m 52.42177,77.498283 v 1.05834 h 0.264583 l -0.264583,-1.05834 m 5.556249,10.31875 0.264584,0.26459 -0.264584,-0.26459 m -8.995833,9.78959 0.264584,0.26458 -0.264584,-0.26458 m 10.31875,0 0.264583,0.26458 -0.264583,-0.26458 m -3.96875,0.26458 0.264584,0.26458 -0.264584,-0.26458 m 5.291667,0 0.264583,0.26458 -0.264583,-0.26458 m -18.25625,9.260417 0.264583,0.26458 -0.264583,-0.26458 m 9.789583,0 0.264584,0.26458 -0.264584,-0.26458 m 6.614583,0 0.264584,0.26458 -0.264584,-0.26458 m 8.466667,0 v 1.05833 h 0.264583 l -0.264583,-1.05833 m -2.910417,0.26458 0.264584,0.26458 -0.264584,-0.26458 m -11.112499,9.78958 0.264583,0.26459 -0.264583,-0.26459 m 5.732639,0.0882 0.176389,0.0882 -0.176389,-0.0882 m -3.175,0.26458 0.176388,0.0882 z"
       id="path1" /><use
       x="0"
       y="0"
       xlink:href="#g28"
       id="use28"
       transform="translate(89.556399,68.55311)" /><use
       x="0"
       y="0"
       xlink:href="#g28"
       id="use29"
       transform="translate(127.09213,124.66321)" /><use
       x="0"
       y="0"
       xlink:href="#g28"
       id="use30"
       transform="translate(88.008536,181.54725)" /><use
       x="0"
       y="0"
       xlink:href="#g28"
       id="use31"
       transform="translate(54.124666,237.6309)" /></g></svg>
