<?xml version="1.0" encoding="UTF-8" standalone="no"?>
<!-- Created with Inkscape (http://www.inkscape.org/) -->

<svg
   width="1000"
   height="250"
   viewBox="0 0 264.58333 66.145835"
   version="1.1"
   id="svg1"
   inkscape:version="1.4.2 (ebf0e940, 2025-05-08)"
   sodipodi:docname="rhythmpedia-logo-dark.svg"
   inkscape:export-filename="../attachments/rhythmpedia-logo-dark.svg"
   inkscape:export-xdpi="96"
   inkscape:export-ydpi="96"
   xmlns:inkscape="http://www.inkscape.org/namespaces/inkscape"
   xmlns:sodipodi="http://sodipodi.sourceforge.net/DTD/sodipodi-0.dtd"
   xmlns="http://www.w3.org/2000/svg"
   xmlns:svg="http://www.w3.org/2000/svg">
  <sodipodi:namedview
     id="namedview1"
     pagecolor="#000000"
     bordercolor="#000000"
     borderopacity="0.25"
     inkscape:showpageshadow="2"
     inkscape:pageopacity="0.0"
     inkscape:pagecheckerboard="0"
     inkscape:deskcolor="#d1d1d1"
     inkscape:document-units="px"
     inkscape:zoom="0.5"
     inkscape:cx="500"
     inkscape:cy="124"
     inkscape:window-width="1920"
     inkscape:window-height="999"
     inkscape:window-x="1920"
     inkscape:window-y="27"
     inkscape:window-maximized="0"
     inkscape:current-layer="layer1"
     inkscape:export-bgcolor="#ffffffff" />
  <defs
     id="defs1" />
  <g
     inkscape:label="Layer 1"
     inkscape:groupmode="layer"
     id="layer1">
    <path
       d="m 83.798,32.578789 q 0,0.77855 -0.549564,1.373912 -0.595362,0.686956 -1.236521,0.686956 -0.32058,0 -0.915942,-0.0458 -0.641159,-0.09159 -0.961738,-0.09159 -1.144927,0 -1.5571,1.328115 -0.32058,1.419709 -0.641159,2.702027 -0.641159,1.602897 -2.335651,1.786085 -2.060868,0 -4.167533,0 -2.702027,0.183189 -2.702027,1.969274 0,0.549565 0.549565,1.09913 0.549565,0.641159 1.053332,0.641159 1.007536,0 2.97681,-0.183188 1.969274,-0.137392 2.931012,-0.137392 0.915942,0 1.5571,0.412174 0.915942,0.412174 0.915942,1.09913 0,1.282318 -0.549565,1.5571 -0.503768,0.32058 -1.923477,0.32058 -0.961738,0 -2.885215,-0.274783 -1.831883,-0.183188 -2.885216,-0.183188 -1.877679,0 -1.877679,1.144927 0,2.885215 4.21333,2.885215 1.236521,0 3.663765,-0.0458 2.518839,-0.09159 3.709563,-0.09159 2.97681,0 2.97681,1.099129 0,1.557101 -1.328115,2.152463 -0.732754,0.274782 -2.65623,0.274782 -1.190724,0 -3.572172,-0.183188 -2.33565,-0.274783 -3.526374,-0.274783 -2.152462,0 -2.885215,0.870145 -0.595362,0.595361 -0.595362,2.152462 0,0.366376 0,1.190724 0.0458,0.732753 0.0458,1.190723 0,3.617969 -1.190724,3.617969 -1.786086,0 -1.786086,-2.97681 0,-0.641159 0.0458,-1.602897 0.09159,-1.007536 0.09159,-1.282318 0,-2.65623 -2.33565,-2.931012 -0.961738,-0.183189 -1.419709,-0.641159 -0.457971,-0.412174 -1.09913,-0.412174 -0.09159,0 -0.77855,0.32058 -0.641159,0.366376 -0.686956,0.412173 -0.503768,0.137391 -2.518839,0.503768 -1.969274,0.183188 -2.702027,0.183188 -2.610433,0 -2.610433,-1.5571 0,-1.786086 4.579707,-1.786086 1.465506,0 2.747824,0.0458 0.457971,0 1.053333,0.228986 0.732753,0.320579 0.915941,0.320579 0.09159,0 0.824347,-0.274782 0.686956,-0.183189 0.824348,-0.228986 2.106665,-0.412173 2.381447,-0.549565 1.09913,-0.641158 1.09913,-2.198259 0,-1.969274 -2.839418,-1.969274 -0.503768,0 -0.915942,-0.228985 -0.412173,-0.32058 -0.77855,-0.32058 -0.137391,0 -1.053332,0.549565 -0.778551,0.503768 -1.87768,0.503768 -0.412174,0 -1.144927,0.228985 -0.870144,0.137392 -1.236521,0.137392 -0.595362,0 -1.328115,-0.457971 -0.732753,-0.457971 -0.732753,-1.053333 0,-1.831882 3.343186,-1.831882 0.686956,0 2.198259,0.503767 1.602898,0.412174 2.244057,0.457971 1.373912,-0.457971 2.610433,-0.915941 1.602897,-0.641159 1.602897,-1.923477 0,-1.373912 -1.236521,-1.373912 -0.366376,0 -0.915941,-0.32058 -0.503768,-0.457971 -0.549565,-0.457971 -0.137391,0 -1.007536,0.457971 -0.686956,0.32058 -1.053332,0.412174 -1.328115,0.183188 -3.480577,0.183188 -1.87768,0 -2.244057,-0.0458 -1.511303,-0.228985 -1.511303,-1.144927 0,-1.282318 2.427245,-1.694491 0.595362,-0.09159 3.388983,-0.09159 2.33565,0 3.526374,1.099129 0.0458,-0.0458 1.923477,-0.961738 0.961738,-0.412174 0.961738,-1.648695 0,-1.786085 -1.694491,-1.786085 -0.274783,0 -0.870144,0.0458 -0.595362,0.0458 -0.915942,0.0458 -0.549565,0 -1.282318,-0.228986 -0.686956,-0.412173 -0.824347,-0.412173 -0.366377,0 -1.694492,0.412173 -1.144926,0.366377 -2.060868,0.366377 -2.152462,0 -2.152462,0 -1.419709,-0.228985 -1.419709,-1.144927 0.549565,-1.099129 1.053333,-1.465506 0.549564,-0.320579 1.831882,-0.320579 1.648695,0 2.793622,0.595361 1.23652,0.503768 1.328115,0.503768 0.961738,-0.503768 2.564635,-0.732753 1.740289,-0.228985 2.244057,-0.457971 0.915941,-0.412173 0.915941,-1.786085 0,-0.915942 -1.190724,-1.419709 0,0 -1.786085,-0.595362 -0.228986,-0.0458 -0.641159,-0.366377 -0.32058,-0.274782 -0.457971,-0.274782 -0.366377,0 -1.007536,0.503768 -0.549564,0.503767 -1.190723,0.641159 -2.015071,0.0458 -3.068404,0.0458 -1.236521,0 -1.236521,-0.915942 0,-2.244056 2.518839,-2.244056 2.015071,0 3.801157,1.007535 0.09159,-0.09159 2.518839,-0.686956 1.786085,-0.412173 1.786085,-1.373912 0,-0.503767 -0.274782,-1.5571 -0.183189,-1.144927 -0.183189,-1.648695 0,-0.77855 0.549565,-1.190723 0.503768,-0.457971 1.282318,-0.457971 0.77855,0 1.557101,0.503768 0.686956,0.503768 0.686956,1.328115 0,0.412173 -0.366377,1.144926 -0.274782,0.732754 -0.274782,1.190724 0,2.015071 3.43478,2.015071 0.228985,0 0.824347,0 0.503768,0 0.77855,0 2.244057,0 3.251592,0.503768 1.511303,0.870144 1.511303,2.976809 0,0.32058 -0.274782,0.824348 -0.09159,0.503767 -0.09159,0.686956 0,0.824347 1.282318,1.007535 0.274782,0.0458 1.831882,0.0458 2.015071,0 2.015071,0.961739 z m -7.968689,-2.65623 q 0,-1.969274 -3.297389,-1.969274 -3.938548,0 -3.938548,1.969274 0,1.373912 1.5571,1.648694 0.549565,0.137391 2.610433,0.137391 3.068404,0 3.068404,-1.786085 z m -0.183189,6.274198 q 0,-2.152462 -5.083474,-2.152462 -1.648695,0 -1.648695,1.786086 0,0.915941 0.549565,1.511303 0.503768,0.641159 1.373912,0.641159 2.381448,0 2.931012,-0.09159 1.87768,-0.366377 1.87768,-1.694492 z M 53.205559,23.64836 q 0,0.961739 -1.328115,2.289854 -1.328115,1.236521 -2.427245,1.602897 -0.412174,0.183188 -0.412174,0.870145 -0.09159,0.732753 -0.320579,1.053332 -0.824347,1.053333 -2.793621,2.610433 -2.19826,1.923477 -3.068404,1.923477 -0.641159,0 -1.236521,-0.595362 -0.45797,-0.549565 -0.45797,-1.328115 0,-1.236521 2.106665,-1.969274 1.144926,-0.274782 1.87768,-1.053333 0.824347,-0.77855 1.602897,-1.511303 0.183188,-0.137391 1.236521,-0.412173 0.595362,-0.137392 0.595362,-1.053333 0,-0.915941 0.824347,-2.976809 1.007535,-2.244057 1.740289,-2.244057 0.961738,0 1.5571,0.961739 0.503768,0.824347 0.503768,1.831882 z m -0.732753,9.022023 q 0,1.09913 -0.915942,2.65623 -1.373912,2.060868 -1.465506,2.427245 -0.32058,0.641158 -0.32058,5.633039 0,0.503768 -0.366376,1.190724 -0.457971,0.77855 -0.549565,1.053332 0.412174,0.732753 1.053333,2.427245 0.137391,0.412174 0.137391,1.831883 0,0.961738 0.09159,2.885215 0.137391,1.87768 0.137391,2.793621 0,0.274783 0.0458,1.053333 0,0.870144 0,1.465506 0,4.53391 -1.694491,4.53391 -1.786086,0 -1.786086,-2.564636 0,-1.602897 0.183188,-4.808692 0.183189,-3.159998 0.183189,-4.762895 0,-3.159998 0.228985,-3.663766 0.0458,-0.0458 0.503768,-0.732753 0.320579,-0.549565 0.320579,-0.870144 0,-0.183189 -0.412173,-0.595362 -0.457971,-0.457971 -0.503768,-0.595362 -0.183188,-0.77855 -0.366377,-1.465506 -0.228985,-0.915942 -1.053332,-0.915942 -3.205795,1.87768 -3.801157,1.87768 -1.282318,0 -1.282318,-1.923477 0,-0.915941 0.77855,-1.328115 0.824347,-0.503767 1.602898,-0.870144 3.709562,-2.060868 6.503183,-7.098546 0.457971,-0.915941 1.465507,-0.915941 1.282318,0 1.282318,1.282318 z m 77.959874,0.641159 q 0,9.296805 -2.06086,12.548397 -0.0916,0.228985 -0.0916,0.320579 0,0 0.32058,0.549565 0.32058,0.549565 0.32058,1.328115 0,0.457971 -0.0916,1.007535 -0.41218,2.518839 -0.82435,5.037678 -0.59536,3.43478 -1.69449,5.266663 -1.46551,2.427245 -3.98435,2.427245 -1.74029,0 -3.98434,-0.595362 -3.1142,-0.686956 -3.1142,-1.831883 0,-0.686956 0.64116,-1.282318 0.64115,-0.641159 1.32811,-0.641159 0.77855,0 2.15246,0.595362 1.32812,0.595362 2.15247,0.595362 1.87767,0 2.93101,-2.289854 0.73275,-1.511303 1.32811,-4.808692 0.59536,-3.297389 0.91594,-3.984345 0.0458,-0.09159 0.36638,-0.732753 0.36638,-0.595362 0.36638,-0.641159 0,-0.457971 -0.18319,-1.099129 -0.18319,-0.732754 -0.18319,-1.053333 0,-1.09913 0.18319,-3.205795 0.18319,-2.060868 0.18319,-3.159998 0,-2.33565 -0.36638,-3.251591 -0.64116,-1.511304 -2.61043,-1.511304 -2.47304,0 -3.02261,1.740289 -0.32058,1.831883 -0.73275,3.709562 -0.0916,0.457971 -0.64116,1.557101 l -0.0458,0.09159 q 0,0.320579 0.13739,0.77855 0.22899,0.503768 0.22899,0.77855 0,1.511303 -1.00754,4.671301 -1.5113,4.442316 -4.80869,9.663182 -4.30492,6.732169 -7.55652,6.732169 -0.54956,0 -1.00753,-0.595362 -0.41217,-0.641159 -0.41217,-1.190724 0,-0.824347 1.19072,-1.511303 1.5113,-0.870144 1.64869,-1.007536 v -0.0458 q 0,-0.366376 -0.64116,-0.366376 -1.4655,0 -4.90028,0.824347 -3.388985,0.915941 -4.442318,0.915941 -0.503767,0 -1.053332,-0.366376 -0.549565,-0.274783 -0.732753,-0.274783 -0.228986,0 -0.961739,0.686956 -0.915941,0.732753 -1.099129,0.824348 -0.641159,0.320579 -2.289854,0.686956 -1.648694,0.412173 -2.427244,0.412173 -1.465507,0 -1.465507,-1.328115 0,-1.465506 2.427245,-2.198259 1.740289,-0.503768 3.75536,-0.503768 0.503767,0 1.602897,0.686956 0.09159,0 1.053333,-0.686956 1.053332,-0.595362 1.648694,-0.686956 1.144927,-0.183188 1.144927,-1.648694 0,-1.144927 -1.053333,-1.328115 -0.09159,0 -1.87768,0 -0.824347,0 -1.419709,-0.32058 -0.641159,-0.274782 -0.641159,-0.274782 -0.137391,0 -1.282318,0.686956 -1.190723,0.595362 -2.198259,0.595362 -2.015071,0 -2.015071,-1.786086 0,-1.328115 2.427245,-1.328115 0.961738,0 1.969274,0.503768 0.961738,0.457971 0.961738,0.457971 0.274783,0 0.549565,-0.32058 0.137391,-0.457971 0.595362,-0.503768 1.09913,-0.137391 2.244056,-0.228985 1.602898,-0.274782 1.602898,-0.915941 0,-1.923477 -3.205795,-1.923477 -0.549565,0 -1.648695,0.137391 -1.053332,0.183188 -1.5571,0.183188 -2.289853,0 -2.931012,-3.068403 -0.274783,-1.282318 -0.274783,-4.85449 0,-2.152462 0.503768,-3.663765 0.77855,-2.335651 2.381448,-2.335651 0.320579,0 0.77855,0.228986 0.503767,0.137391 0.686956,0.137391 0.274782,0 0.595362,-0.457971 0.412173,-0.45797 1.236521,-0.45797 0.961738,0 2.106665,-0.457971 1.557096,-0.503768 1.557096,-1.144927 0,-1.007535 -1.602893,-1.282318 -0.32058,-0.0458 -2.244057,-0.0458 -0.366376,0 -1.007535,-0.183188 -0.503768,-0.274783 -0.641159,-0.274783 -0.137391,0 -1.511303,0.686956 -1.282318,0.732754 -2.381448,0.732754 -1.648695,0 -1.648695,-1.144927 0,-1.373912 0.686956,-1.740289 0.412174,-0.228985 1.740289,-0.228985 0.824347,0 1.419709,0.274782 0.686956,0.32058 1.007536,0.32058 0.45797,0 0.961738,-0.503768 0.549565,-0.457971 1.511303,-0.549565 3.755359,-0.320579 3.755359,-1.786085 0,-0.503768 -0.549564,-0.824348 -0.595362,-0.320579 -1.144926,-0.320579 -0.641159,0 -2.106666,0.366376 -1.465506,0.412174 -2.198259,0.412174 -2.152462,0 -2.152462,-1.87768 0,-0.320579 0.457971,-0.732753 0.686956,-0.595362 2.747824,-0.732753 2.473041,-0.137391 3.068403,-0.32058 1.969279,-0.686956 5.770429,-2.198259 0.45797,-0.274782 0.91594,-0.595362 0.54957,-0.320579 1.00754,-0.320579 0.68695,0 1.14493,0.641159 0.45797,0.549565 0.45797,1.236521 0,0.732753 -2.42725,1.694491 -2.47304,1.053333 -2.47304,2.427245 0,2.610433 2.10667,2.610433 0.64115,0 1.87767,-0.137391 1.23653,-0.32058 1.87768,-0.32058 1.05334,0 1.96928,0.412174 1.28232,0.45797 1.28232,1.236521 0,1.694491 -3.52638,1.694491 -0.36637,0 -1.00753,-0.0458 -0.82435,0 -1.14493,0 -3.38898,0 -3.38898,1.602897 0,0.915942 3.0684,1.09913 3.66377,0.274782 4.44232,0.915941 1.05333,0.870145 1.05333,4.808693 0,0.45797 0.0458,1.373912 0,0.961738 0,1.465506 0,6.045213 -4.03015,6.045213 -0.54956,0 -1.5113,-0.09159 -1.00753,-0.09159 -1.5113,-0.09159 -0.68696,0 -1.32812,0.274782 -0.68695,0.412174 -0.68695,1.09913 0,1.007535 2.61043,1.007535 0.50377,0 1.46551,-0.183188 1.00753,-0.137391 1.5113,-0.137391 2.19826,0 2.19826,1.053332 0,1.831883 -3.29739,1.831883 -0.50377,0 -1.41971,-0.0458 -0.87014,-0.0458 -1.05333,-0.0458 -1.92348,0 -1.92348,1.236521 0,0.45797 0.32058,0.961738 0.22899,0.549565 0.73275,0.549565 0.50377,0 4.07594,-0.549565 3.61797,-0.503768 3.84696,-0.641159 2.10666,-1.099129 4.16753,-6.045213 1.41971,-3.43478 2.33565,-7.281734 0.13739,-0.549565 0.73275,-1.099129 0.59536,-0.595362 0.59536,-0.915942 0,-0.183188 -0.50376,-0.732753 -0.41218,-0.549565 -0.22899,-1.786086 0.0458,-0.366376 0.0458,-0.870144 0,-2.244056 -0.64116,-2.427244 -0.27478,-0.137392 -0.73275,-0.457971 -0.45797,-0.412174 -0.68696,-0.412174 0.13739,0 -0.82435,0.503768 -1.00753,0.549565 -2.24405,0.549565 -1.92348,0 -1.92348,-1.511303 0,-1.740289 2.10667,-1.740289 0.50376,0 1.5113,0.274782 0.96174,0.228986 1.41971,0.228986 1.60289,0 2.56463,-2.106665 0.68696,-1.648695 0.68696,-3.480578 0,-0.732753 -0.0916,-2.244056 -0.0916,-1.5571 -0.0916,-2.289853 0,-1.648695 1.6487,-1.648695 1.69449,0 1.69449,1.969274 0,0.961738 -0.36638,2.931012 -0.36638,1.969274 -0.36638,2.97681 0,2.33565 2.19826,2.839418 1.96928,0.274783 3.93855,0.503768 2.15246,0.457971 2.15246,2.65623 z m -21.57042,5.037677 q 0,-1.465506 -1.5113,-1.740288 -0.22898,-0.0458 -2.65623,-0.0458 -2.24406,0 -2.24406,1.923477 0,1.465506 3.48058,1.465506 2.93101,0 2.93101,-1.602898 z m -0.0916,5.999416 q 0,-1.740288 -2.83942,-1.740288 -1.6029,0 -2.19826,0.183188 -1.19072,0.457971 -1.19072,1.786086 0,1.007535 2.33565,1.007535 1.87768,0 2.42724,-0.09159 1.46551,-0.274782 1.46551,-1.144927 z m -8.838834,-5.953619 q 0,-1.786085 -1.969274,-1.786085 -0.366377,0 -1.09913,0.228985 -0.732753,0.137391 -1.007535,0.137391 -0.457971,0 -0.961739,-0.366376 -0.457971,-0.366377 -0.503768,-0.366377 -0.595361,0 -1.099129,0.915942 -0.457971,0.824347 -0.457971,1.511303 0,0.961738 1.007536,1.236521 1.419709,0.503768 1.740288,0.77855 0.137391,0.09159 0.457971,0.228985 0.686956,-0.45797 2.427245,-1.007535 1.465506,-0.09159 1.465506,-1.511304 z m 0.320584,5.816228 q 0,-1.099129 -1.236526,-1.465506 -0.915941,-0.09159 -1.923477,-0.274782 -0.137391,-0.0458 -0.595361,-0.183189 -0.457971,-0.183188 -0.732754,-0.183188 -0.595361,0 -1.694491,0.732753 -1.09913,0.824347 -1.09913,1.373912 0,1.557101 3.43478,1.557101 0.503768,0 1.236521,-0.0458 0.732753,-0.0458 0.824348,-0.0458 0.45797,0 1.099129,-0.45797 0.686961,-0.549565 0.686961,-1.007536 z m 76.99813,2.839418 q 0,4.07594 -0.0916,8.930429 -0.0916,4.717098 -4.6255,4.717098 -3.61797,0 -5.35826,-0.09159 -1.74029,-0.09159 -3.16,-0.549565 l -0.13739,-0.0458 q -0.54956,0 -1.78609,0.457971 -1.09912,0.503767 -1.78608,0.503767 -2.10667,0 -6.2284,0.0458 -4.07594,0.09159 -6.18261,0.09159 -0.59536,0 -1.78608,0.0458 -1.23652,0 -1.74029,0 -3.1142,0 -4.44232,-0.961739 -1.78608,-1.328115 -1.78608,-5.083474 0,-20.013319 0.59536,-21.936796 0.0458,-0.228986 0.54956,-1.053333 0.45798,-0.595362 0.45798,-1.190724 0,-0.228985 -0.45798,-0.732753 -0.45797,-0.45797 -0.54956,-0.77855 -0.22899,-0.915941 -0.22899,-2.610433 0,-4.579707 4.90029,-4.579707 1.09913,0 2.33565,0.137391 1.05333,0.961739 1.6029,0.961739 0.32058,0 1.78608,-0.732753 1.46551,-0.824347 2.93102,-0.824347 20.65447,0 21.66201,0.45797 2.97681,1.373912 2.97681,6.640575 0,1.831883 -0.45797,5.404054 -0.45797,3.480578 -0.45797,5.31246 v 0.366377 q 0,0.228985 0.68695,0.870144 0.59537,0.732753 0.68696,1.373912 0.0916,0.549565 0.0916,4.854489 z m -2.06086,-7.464922 q 0,-0.228985 -0.36638,-0.961738 -0.27478,-0.870144 -0.27478,-1.373912 0,-0.32058 -0.22899,-1.373912 -0.36637,-2.97681 -0.36637,-6.777966 0,-1.053333 -1.14493,-2.289854 -1.19072,-1.328115 -2.24406,-1.511303 -3.25159,-0.595362 -10.44173,-0.595362 -1.64869,0 -4.99188,0.183188 -3.29739,0.183189 -4.94608,0.183189 -0.68696,0 -1.74029,-0.549565 -0.96174,-0.549565 -1.23652,-0.549565 -1.78609,0 -3.57217,1.648694 -1.83189,1.694492 -2.19826,3.480578 -0.0458,0.320579 -0.54957,0.77855 -0.45797,0.45797 -0.45797,0.870144 0,0.641159 0.41218,1.740289 0.45797,1.053332 0.50376,1.5571 0.13739,1.282318 0.13739,4.442316 0,2.381447 -0.22898,7.190139 -0.22899,4.808693 -0.22899,7.19014 0,3.251592 1.83189,4.21333 1.32811,0.732754 4.94608,0.778551 l 12.36521,0.0458 q 0.82435,0 2.06087,0.45797 1.28231,0.503768 1.60289,0.503768 -0.0458,0 1.09913,-0.457971 1.05334,-0.45797 2.47304,-0.412173 l 0.91595,0.0458 q 2.24405,0.0458 3.70956,-0.641159 1.92348,-0.870144 2.01507,-2.931012 0.50377,-8.28927 0.50377,-8.106082 0,-0.77855 -0.22899,-2.289853 -0.0458,-1.602897 -0.0458,-2.381448 0,-0.503767 0.45797,-1.23652 0.45797,-0.686956 0.45797,-0.870145 z m -15.02144,-3.709562 q 0,2.518838 -1.6029,2.518838 -1.00753,0 -1.5113,-2.060868 -0.0458,-0.274782 -0.54957,-2.976809 -0.18319,-0.961739 -1.14492,-3.251592 -0.96174,-2.060868 -0.96174,-2.65623 0,-1.419709 1.19072,-1.419709 0.77855,0 1.46551,0.549565 0.64116,0.503768 0.64116,1.190724 0,0.320579 -0.0916,1.099129 -0.0916,0.595362 -0.0916,0.961739 0,-0.228986 1.37391,2.015071 1.28232,2.152462 1.28232,4.030142 z m -8.06029,1.465506 q 0,1.09913 -1.32811,1.09913 -1.37391,0 -2.06087,-1.648695 -0.18319,-0.595362 -0.59536,-2.931012 -0.22899,-1.007536 -1.5113,-1.969274 Q 145.33,31.021688 145.33,30.05995 q 0,-1.419709 1.41971,-1.419709 0.87014,0 1.41971,0.77855 0.64116,0.641159 0.73275,1.648695 0.22898,0.961738 0.22898,0.961738 0.96174,1.282318 1.92348,2.427245 1.05333,1.419709 1.05333,2.885215 z m 18.73101,15.571003 q 0,1.190724 -1.41971,1.190724 -1.19073,0 -5.12928,-2.610433 -3.89275,-2.564636 -4.80869,-2.564636 -0.59536,0 -5.44985,3.43478 -4.80869,3.388983 -6.96115,3.388983 -0.82435,0 -1.41971,-0.595361 -0.73276,-0.503768 -0.73276,-1.190724 0,-0.457971 0.36638,-0.77855 2.83942,-1.144927 5.54145,-2.473042 5.08347,-2.198259 5.08347,-3.480577 0,-0.274783 -0.87014,-0.870145 -0.73276,-0.274782 -1.92348,-1.053332 -0.32058,-0.137391 -0.36638,-0.595362 0,-0.457971 -0.0916,-0.595362 -0.22899,-0.228985 -1.5571,-0.320579 -1.37391,-0.09159 -3.61797,-1.053333 -2.61043,-1.144927 -2.61043,-2.106665 0,-1.373912 1.41971,-1.373912 1.83188,0 5.77043,2.610433 0.64116,0.45797 0.87014,1.053332 0.13739,0.641159 0.18319,0.641159 0.45797,-0.274782 1.14493,-0.274782 0.82434,0 2.10666,0.77855 1.32812,0.641159 1.83188,0.641159 1.00754,0 1.78609,-1.007536 1.14493,-1.419709 3.02261,-4.350721 0.32058,-0.549565 1.5113,-3.846954 0.64116,-2.427244 1.64869,-5.404054 0.45797,-0.457971 1.00754,-0.457971 0.73275,0 1.6029,0.778551 0.82434,0.686956 0.82434,1.465506 0,0.183188 -0.64115,0.77855 -0.59537,0.503768 -0.73276,0.870144 -2.56463,7.19014 -5.26666,11.174485 -0.87015,1.09913 -0.87015,1.602897 0,0.686956 2.28986,1.831883 3.75536,1.831883 4.25913,2.060868 2.19826,1.373912 2.19826,2.702027 z m 56.25207,-23.90607 q 0,0.915942 -1.09913,0.915942 -0.22898,0 -0.73275,-0.0458 -0.50377,-0.137391 -0.73276,-0.137391 -0.87014,0 -2.61043,0.183188 -1.78608,0.0458 -2.61043,0.0458 -1.69449,0 -2.74783,2.198259 -1.14492,2.244057 -1.96927,2.244057 -0.64116,0 -1.14493,-0.549565 -0.50376,-0.595362 -0.50376,-1.236521 0,-0.457971 0.27478,-1.602898 3.93855,-1.969274 3.93855,-5.816227 0,0 -0.18319,-3.022607 -0.13739,-2.015071 1.05333,-2.015071 0.91594,0 1.46551,0.686956 0.54956,0.686956 0.54956,1.511303 0,0.412174 -0.59536,1.328115 -0.54957,0.915942 -0.54957,1.923477 0,1.144927 0.64116,1.511304 0.45797,0.320579 1.6945,0.320579 0.59536,0 1.83188,-0.228985 1.32811,-0.183189 1.96927,-0.183189 2.06087,0 2.06087,1.969274 z m -0.36638,8.793038 q 0,1.328115 -10.21274,1.328115 -2.10667,0 -2.10667,-1.236521 0,-1.511304 2.56464,-1.511304 0.41217,0 1.05333,0.0458 0.64116,0.0458 0.87014,0.0458 3.02261,0 4.30493,-0.274783 0.73275,-0.274782 1.37391,-0.274782 2.15246,0 2.15246,1.87768 z m -14.0139,-15.250424 q 0,0.45797 -0.64116,0.732753 -0.59536,0.274782 -1.09913,0.274782 -0.22898,0 -0.77855,-0.09159 -0.45797,-0.183188 -0.68695,-0.183188 -0.96174,0 -0.96174,2.473042 0,1.786085 1.4655,1.786085 1.5571,0 2.10667,1.144927 0.41217,0.732753 0.41217,2.518839 0,2.381447 -0.0916,3.159997 -0.36638,2.335651 -1.6487,2.152463 -1.00753,-0.09159 -0.96173,-0.09159 -1.19073,0 -1.19073,1.511303 0,1.740288 0.91594,2.381447 1.32812,-0.137391 1.32812,-0.137391 1.83188,0 1.83188,1.5571 0,0.549565 -0.96174,1.007536 -0.87014,0.412174 -1.5113,0.412174 h -5.03768 q -0.18319,0 -0.41217,-0.0916 -0.36638,-0.137391 -0.50377,-0.137391 -0.45797,0 -1.41971,0.183189 -1.00753,0.09159 -1.5113,0.09159 -1.6487,0 -1.6487,-4.350722 0,-0.503768 0.0916,-1.5571 0.0916,-1.053333 0.0916,-1.602898 0,-1.969274 -0.0916,-5.999416 -0.18319,-4.030142 -0.18319,-6.045213 0,-2.427244 3.43478,-2.427244 0.59536,0 0.87014,0.228985 0.36638,0.228985 0.50377,0.228985 2.15246,-0.732753 2.65623,-0.732753 2.65623,0 3.25159,0.09159 2.38145,0.274783 2.38145,1.511304 z m -6.45739,3.159997 q 0,-1.969273 -1.83188,-3.159997 l -1.00753,0.641159 q -1.32812,0.137391 -1.32812,2.976809 0,0.366377 0.59536,0.870144 0.54957,0.457971 0.82435,0.457971 h 1.74029 q 0.41217,0 0.68695,-0.686956 0.32058,-0.595362 0.32058,-1.09913 z m 3.93855,5.953619 q 0,-0.732753 -0.18319,-1.053332 -0.0458,-0.0458 -0.77855,-0.686956 -2.47304,-0.503768 -2.97681,-0.503768 -0.27478,0 -0.77855,0.09159 -0.50376,0.0458 -0.73275,0.0458 -1.00753,0 -1.87768,0.870145 -0.82435,0.77855 -0.82435,1.740288 0,1.831883 1.09913,2.198259 0.27479,0.0458 0.54957,0.366377 0.22898,0.183188 0.41217,0.228985 0.64116,-0.824347 2.70203,-0.824347 1.74029,0 2.42724,-0.320579 0.96174,-0.549565 0.96174,-2.152463 z m -3.80115,6.823764 q 0,-1.328115 -0.1374,-1.648695 -0.18318,-0.503768 -1.23652,-0.503768 -0.27478,0 -0.59536,-0.274782 -0.13739,-0.228985 -0.27478,-0.228985 -0.0458,0 -0.32058,0.412173 -0.32058,0.228986 -0.68696,0.228986 -1.23652,0.0458 -1.23652,2.473041 0,1.282318 1.23652,1.511304 0.27479,0.137391 2.15247,0.137391 1.09913,0 1.09913,-2.106665 z m -6.96116,-11.998832 q 0,0.595362 -0.45797,1.23652 -0.50377,0.732754 -1.09913,0.732754 -1.28232,0 -2.79362,-2.015071 -1.5113,-2.106666 -2.33565,-2.106666 -0.50377,0 -1.6029,1.41971 -1.5113,1.923476 -2.47304,2.702027 -1.78609,1.419709 -3.84695,1.419709 -0.87015,0 -0.87015,-1.007536 0,-0.732753 0.32058,-1.5571 5.03768,-2.427245 6.45739,-5.770431 0.22898,-0.686956 0.32058,-1.328115 0.22898,-0.77855 0.87014,-0.77855 0.59536,0 0.87015,0.457971 0.32058,0.45797 0.64115,0.961738 0.73276,1.053333 2.01508,2.244057 1.09913,0.732753 2.24405,1.5571 1.74029,1.144927 1.74029,1.831883 z m 27.70723,32.33273 q 0,1.87768 -1.87768,1.87768 -0.82435,0 -2.56464,-0.183188 -1.74029,-0.137392 -2.65623,-0.137392 -0.22898,0 -0.87014,-0.412173 -0.54957,-0.457971 -0.59536,-0.686956 h -0.22899 q -0.54956,0.77855 -2.19826,1.419709 -0.27478,0 -1.46551,-0.183188 -0.91594,-0.0458 -1.4197,-0.0458 l -4.90029,0.137391 q -0.73275,0.412173 -1.69449,0.412173 -0.68696,0 -1.78609,-1.511303 -0.96174,1.969274 -5.81623,1.969274 -2.06086,0 -2.06086,-1.648694 0,-1.41971 2.56463,-1.41971 1.37391,0 1.69449,-1.602897 0.0458,-0.274782 0.0458,-2.65623 0,-8.930428 2.83942,-8.930428 0.96174,0 2.15246,0.366376 1.28232,-0.870144 3.66377,-1.053332 0.82434,-0.137392 3.84695,-0.137392 2.42724,0 4.12174,0.824348 0.13739,0 0.45797,0.0458 0.27478,0.0458 0.50376,0.0458 0.22899,0 0.68696,-0.137391 0.50377,-0.274783 0.82435,-0.274783 0.82435,0 2.06087,1.09913 1.19072,0.961738 1.19072,1.694491 0,0.824348 -0.13739,2.335651 -0.13739,1.465506 -0.13739,2.198259 v 4.671301 q 0.45797,1.053333 1.05333,1.053333 0.0916,0 0.45797,-0.0458 0.41217,-0.0458 0.73275,-0.0458 1.51131,0 1.51131,0.961738 z m -6.2742,-8.060284 q 0,-2.060868 -0.22899,-2.702027 -0.50376,-1.373912 -2.06086,-1.373912 -1.92348,0 -1.92348,3.343186 v 7.19014 q 0,0.641159 0.64116,1.099129 0.64116,0.503768 1.28232,0.549565 0.54956,-0.366376 1.4655,-1.282318 0.82435,-1.328115 0.82435,-6.823763 z m -6.59478,-1.328115 q 0,-0.732753 -0.50377,-1.694492 -0.45797,-0.915941 -1.05333,-0.915941 -0.77855,0 -1.5113,0.870144 -0.68696,0.961739 -0.68696,1.740289 v 6.686372 q 0,1.969274 2.19826,1.969274 1.23652,0 1.46551,-1.511303 0,-0.228986 0,-2.427245 0,-0.77855 0.0458,-2.289853 0.0458,-1.648695 0.0458,-2.427245 z m -6.09101,0.732753 q 0,-0.732753 -0.73275,-2.106665 -0.64116,-1.465506 -1.28232,-1.465506 -1.28232,0 -1.96927,2.015071 -0.50377,1.511303 -0.50377,3.022606 0,0.503768 0.0458,1.557101 0.0458,1.144926 0.0458,1.648694 0,1.969274 0,2.244056 0.0916,1.09913 0.73276,1.786086 h 0.59536 q 0.32058,-0.366376 1.14492,-0.686956 0.87015,-0.320579 1.05334,-0.457971 0.87014,-0.549564 0.87014,-7.556516 z m -10.30434,-7.327531 q 0,0.824347 -0.45797,2.060868 -0.59536,1.557101 -0.77855,2.060868 -0.13739,1.373912 -0.22899,2.793622 -0.36637,2.152462 -1.23652,2.152462 -0.73275,0 -0.73275,-1.648695 0,-0.366376 0.0916,-1.190724 0.1374,-0.870144 0.1374,-1.282317 0.22898,-3.068404 0.27478,-3.709563 0.41217,-2.976809 1.4655,-2.976809 0.50377,0 1.00754,0.641158 0.45797,0.641159 0.45797,1.09913 z m 0.18319,-5.862025 q 0,1.053333 -1.19073,1.373912 -1.28231,0.32058 -2.47304,0.549565 -1.32811,0.595362 -1.32811,2.381448 0,0.641159 0.0916,1.969274 0.13739,1.328115 0.13739,1.969274 0,1.007535 -0.18318,3.1142 -0.1374,2.106666 -0.1374,3.114201 0,2.015071 1.46551,2.015071 0.13739,0 1.05333,-0.320579 0.91594,-0.274783 1.05334,-0.274783 1.4655,0 1.4655,0.77855 0,0.824348 -1.37391,1.511304 -1.00754,0.641159 -2.06087,0.870144 -0.96174,0.228985 -4.57971,1.87768 -3.34318,1.465506 -4.03014,1.465506 -1.37391,0 -1.37391,-1.511303 0,-1.282318 1.96927,-1.969274 2.42725,-0.870145 2.79363,-1.557101 0.32058,-0.549564 0.87014,-1.694491 0.32058,-1.09913 0.59536,-4.717098 0.27478,-3.205795 0.27478,-5.083475 0,-2.473042 -0.96173,-3.388983 -0.59537,-0.641159 -1.96928,-0.641159 -0.13739,0 -0.45797,0.0458 -0.32058,0 -0.45797,0 -1.6029,0 -1.6029,-1.465506 0,-0.870144 1.41971,-1.053333 1.23652,-0.137391 2.56464,-0.366376 1.41971,-0.366377 1.41971,-1.5571 0,-1.373913 -2.51884,-1.648695 -2.42725,-0.366377 -2.42725,-1.236521 0,-0.595362 1.14493,-1.144927 1.09913,-0.686956 1.83188,-0.641158 3.06841,0.183188 3.06841,0.183188 0,0 2.70202,-0.228986 0.64116,-0.0458 1.6487,0.274783 1.28232,0.457971 1.28232,1.007535 0,0.732753 -2.28986,1.511304 -2.19826,0.686956 -2.19826,2.106665 0,1.144927 2.38145,1.373912 2.38145,0.366376 2.38145,1.007535 z m -9.02202,14.746656 q 0,2.106666 -1.05334,2.106666 -0.87014,0 -1.28231,-2.473042 -0.18319,-1.602897 -0.41218,-3.159998 -0.22898,-1.053332 -0.59536,-2.152462 -0.32058,-1.328115 -0.32058,-2.289853 0,-0.412174 0.54957,-1.007536 0.59536,-0.549565 1.00753,-0.549565 0.64116,0 1.37391,4.259128 0.73276,3.801156 0.73276,5.266662 z"
       id="text1"
       style="font-size:46.8962px;line-height:0.8;font-family:DFPKoIn-W4;-inkscape-font-specification:'DFPKoIn-W4, Normal';letter-spacing:0.883412px;word-spacing:0.035056px;direction:rtl;fill:#4a4a4a;stroke:#9a9a9a;stroke-width:2.16444;stroke-linecap:round;stroke-miterlimit:111;stroke-opacity:0.99848;paint-order:markers stroke fill"
       aria-label="律動図鑑" />
    <path
       style="font-weight:900;font-size:15.5989px;line-height:0.8;font-family:'M PLUS 1';-inkscape-font-specification:'M PLUS 1, Heavy';letter-spacing:0.955797px;word-spacing:0.0379284px;direction:rtl;baseline-shift:baseline;fill:#4a4a4a;stroke:#9a9a9a;stroke-width:1.32292;stroke-linecap:square;stroke-miterlimit:111;stroke-opacity:0.99848;paint-order:markers stroke fill"
       d="m 155.19226,8.5689591 q -0.68635,0 -1.26351,-0.3275769 -0.56156,-0.3431758 -0.90473,-0.9047362 -0.32758,-0.5771593 -0.32758,-1.2635109 0,-0.6863516 0.32758,-1.247912 0.34317,-0.5771593 0.90473,-0.9047362 0.57716,-0.3431758 1.26351,-0.3431758 0.68636,0 1.24792,0.3431758 0.57716,0.3275769 0.90473,0.9047362 0.34318,0.5615604 0.34318,1.247912 0,0.6863516 -0.34318,1.2635109 -0.32757,0.5615604 -0.90473,0.9047362 -0.56156,0.3275769 -1.24792,0.3275769 z m 0,-1.6378845 q 0.35878,0 0.60836,-0.2495824 0.24958,-0.2651813 0.24958,-0.6083571 0,-0.3587747 -0.24958,-0.6083571 -0.24958,-0.2495824 -0.60836,-0.2495824 -0.34317,0 -0.60835,0.2495824 -0.24958,0.2495824 -0.24958,0.6083571 0,0.3431758 0.24958,0.6083571 0.26518,0.2495824 0.60835,0.2495824 z m 0.85794,9.9520984 q -1.16991,-1.247912 -2.09025,-2.246242 -0.92033,-0.998329 -1.71588,-1.871868 -0.77994,-0.873538 -1.52869,-1.715879 -0.51476,-0.577159 -0.82674,-0.889137 -0.29638,-0.327577 -0.48357,-0.4523682 -0.18718,-0.1247912 -0.35877,-0.1247912 -0.15599,0 -0.32758,0.1403901 -0.15599,0.1403901 -0.42117,0.4991643 -0.26518,0.358775 -0.70195,1.045127 -0.49916,0.779945 -1.09192,1.653483 -0.59276,0.873539 -1.37271,1.996659 l -2.26184,-1.949862 q 0.81115,-1.107522 1.4819,-2.043456 0.67075,-0.9515329 1.23231,-1.7626757 0.54596,-0.7955439 0.95154,-1.2947087 0.42117,-0.5147637 0.79554,-0.7955439 0.37437,-0.2963791 0.77994,-0.4055714 0.40558,-0.1247912 0.93594,-0.1247912 0.53036,0 0.92033,0.077994 0.38998,0.077994 0.74875,0.311978 0.37437,0.2339835 0.82674,0.6707527 0.46797,0.4367692 1.12312,1.1543186 1.4975,1.6222851 2.839,3.0417851 1.34151,1.403901 2.65182,2.745407 z m 5.47948,-1.762676 q 2.12145,-0.265181 3.19778,-1.169917 1.09192,-0.920336 1.09192,-2.41783 v 0 H 159.8918 V 8.8809371 h 14.03901 V 11.53275 h -4.99165 v 0 q 0,1.762676 -0.81114,3.104181 -0.81115,1.341506 -2.32424,2.152648 -1.49749,0.811143 -3.57215,0.982731 z m -0.078,-7.9554389 v -2.651813 h 8.89137 v 2.651813 z m 8.90697,0.779945 q -0.37437,-0.8267417 -0.81114,-1.55989 -0.43677,-0.7331483 -0.98273,-1.4974944 l 1.77827,-0.9515329 q 0.54596,0.7643461 0.98273,1.5130933 0.43677,0.7487472 0.82674,1.5910878 z m 2.65181,-0.8423406 Q 172.6517,6.2759208 172.23053,5.5271736 171.82496,4.7784264 171.31019,3.9984814 l 1.76268,-0.8891373 q 0.53036,0.7955439 0.93593,1.55989 0.42117,0.7487472 0.77995,1.6066867 z m 4.99591,4.1025105 q 1.23232,-0.187187 2.58942,-0.623956 1.35711,-0.452368 2.68301,-1.0919228 1.34151,-0.6551538 2.49583,-1.4194999 1.16991,-0.779945 2.02785,-1.6066867 l 1.65349,1.9810603 q -0.96713,0.9047362 -2.29304,1.7626761 -1.31031,0.84234 -2.8078,1.55989 -1.4819,0.70195 -3.01059,1.216714 -1.52869,0.499165 -2.91699,0.717549 z m 4.64848,6.364351 V 10.39403 h 2.87019 v 7.175494 z m 11.56304,-2.433428 q 1.24792,-0.42117 1.99666,-0.811143 0.74875,-0.405571 1.12312,-0.967132 0.38998,-0.577159 0.51477,-1.466296 0.14039,-0.904736 0.14039,-2.3086374 v -1.403901 h 2.96379 v 1.403901 q 0,1.7938734 -0.28078,3.1041814 -0.28078,1.310307 -0.90474,2.230642 -0.62395,0.920335 -1.65348,1.544291 -1.02953,0.639555 -2.54262,1.076324 z M 193.70314,7.3990416 V 4.8252231 h 13.25907 v 2.5738185 z m 6.94151,3.6657414 q 1.4819,-0.811143 2.27744,-1.8406701 0.81114,-1.0451263 0.92034,-2.2930383 l 3.11978,0.467967 q -0.23399,1.2323131 -0.88914,2.3710328 -0.63956,1.1387196 -1.57549,2.0746536 -0.93593,0.920335 -2.05906,1.481896 z"
       id="text2"
       aria-label="ペディア" />
    <path
       style="font-weight:900;font-size:15.5989px;line-height:0.8;font-family:'M PLUS 1';-inkscape-font-specification:'M PLUS 1, Heavy';letter-spacing:0.955797px;word-spacing:0.0379284px;direction:rtl;baseline-shift:baseline;fill:#4a4a4a;stroke:#9a9a9a;stroke-width:1.32292;stroke-linecap:square;stroke-miterlimit:111;stroke-opacity:0.99848;paint-order:markers stroke fill"
       d="m 69.462612,14.232723 q 2.105851,-0.0468 3.525351,-0.343176 1.4195,-0.296379 2.246242,-0.920335 0.84234,-0.623956 1.201115,-1.653484 0.358775,-1.029527 0.358775,-2.5426204 V 3.8594542 h 3.197774 v 4.8356589 q 0,2.1838459 -0.577159,3.7437359 -0.561561,1.55989 -1.778275,2.55822 -1.216714,0.98273 -3.150977,1.450697 -1.918665,0.483566 -4.632874,0.514764 z M 68.448683,11.190937 V 3.8594542 h 3.197775 v 7.3314828 z m 15.150796,3.338165 q 2.059055,-0.904737 3.759335,-2.090253 1.715879,-1.201115 3.057385,-2.6674118 1.357104,-1.4662966 2.339835,-3.1821755 L 93.66077,7.2912122 H 84.535413 V 4.5614047 h 10.716445 l 0.467967,1.6378845 v 1.091923 q -1.045127,2.0902525 -2.69861,3.9621208 -1.637885,1.856269 -3.712538,3.353763 -2.059055,1.481896 -4.383291,2.433429 z m 11.324802,2.511423 q -0.873539,-1.045127 -1.747077,-1.871868 -0.85794,-0.842341 -1.778275,-1.528693 -0.920335,-0.70195 -1.965461,-1.294708 l 1.965461,-2.105852 q 1.481896,0.842341 2.885797,2.043456 1.4195,1.185516 2.745406,2.729808 z M 93.863555,6.5892617 Q 93.707566,5.6689266 93.489182,4.9045805 93.286396,4.1246355 92.958819,3.2978938 l 1.887467,-0.4367692 q 0.296379,0.7955439 0.499165,1.6066867 0.218385,0.7955439 0.374374,1.7314779 z M 96.374978,6.3708771 Q 96.250187,5.450542 96.047401,4.6861959 95.860215,3.9062509 95.579434,3.0639103 l 1.809473,-0.3743736 q 0.311978,0.8111428 0.499165,1.6222856 0.187186,0.7955439 0.311978,1.7314779 z m 5.105102,8.2518179 q 0.99833,-2.69861 1.82507,-5.3972193 0.82675,-2.6986096 1.4507,-5.3660215 l 3.04179,0.5459615 q -0.60836,2.7298075 -1.4819,5.5688072 -0.85794,2.8234011 -1.94986,5.6624011 z m -1.4039,-0.779945 q 3.01059,-0.124791 6.06797,-0.436769 3.05739,-0.327577 6.17717,-0.811143 l 0.38997,2.651813 q -3.27577,0.514764 -6.41115,0.826742 -3.11978,0.311978 -6.14596,0.42117 z m 11.93316,3.275769 q -0.38997,-1.169917 -0.92033,-2.464626 -0.53037,-1.310308 -1.12313,-2.55822 -0.57715,-1.263511 -1.13872,-2.3086369 l 2.72981,-1.1699175 q 0.59276,1.0763241 1.18552,2.3554344 0.60836,1.26351 1.13872,2.573818 0.54596,1.310308 0.93593,2.480225 z"
       id="text3"
       aria-label="リズム" />
  </g>
</svg>
