<?xml version="1.0" encoding="UTF-8" standalone="no"?>
<!-- Created with Inkscape (http://www.inkscape.org/) -->

<svg
   width="1000"
   height="550"
   viewBox="0 0 264.58333 145.52084"
   version="1.1"
   id="svg1"
   sodipodi:docname="syllable-0100-0000-syllable-0.svg"
   inkscape:version="1.4.2 (ebf0e940, 2025-05-08)"
   inkscape:export-filename="syllable-0100-0000-syllable-0.png"
   inkscape:export-xdpi="96"
   inkscape:export-ydpi="96"
   xmlns:inkscape="http://www.inkscape.org/namespaces/inkscape"
   xmlns:sodipodi="http://sodipodi.sourceforge.net/DTD/sodipodi-0.dtd"
   xmlns="http://www.w3.org/2000/svg"
   xmlns:svg="http://www.w3.org/2000/svg">
  <sodipodi:namedview
     id="namedview1"
     pagecolor="#ffffff"
     bordercolor="#ffffff"
     borderopacity="0.24705882"
     inkscape:showpageshadow="2"
     inkscape:pageopacity="0.0"
     inkscape:pagecheckerboard="0"
     inkscape:deskcolor="#d1d1d1"
     inkscape:document-units="px"
     inkscape:zoom="0.89144006"
     inkscape:cx="763.37157"
     inkscape:cy="548.55062"
     inkscape:window-width="2056"
     inkscape:window-height="1229"
     inkscape:window-x="1"
     inkscape:window-y="-167"
     inkscape:window-maximized="0"
     inkscape:current-layer="layer1"
     inkscape:export-bgcolor="#ffffffff" />
  <defs
     id="defs1" />
  <g
     inkscape:label="Layer 1"
     inkscape:groupmode="layer"
     id="layer1">
    <g
       id="g9"
       transform="matrix(0.94372378,0,0,0.94372378,11.031114,14.947157)">
      <path
         style="fill:none;fill-opacity:1;stroke:#000000;stroke-width:1.04272;stroke-linecap:round;stroke-linejoin:round;stroke-dasharray:none;stroke-dashoffset:6;stroke-opacity:1;paint-order:markers stroke fill"
         d="m 142.85521,103.91914 8.04618,-0.88795"
         id="path16-6"
         sodipodi:nodetypes="cc" />
      <path
         style="fill:none;fill-opacity:1;stroke:#000000;stroke-width:1.04272;stroke-linecap:round;stroke-linejoin:round;stroke-dasharray:none;stroke-dashoffset:6;stroke-opacity:1;paint-order:markers stroke fill"
         d="m 142.45738,106.90291 8.5535,1.39243"
         id="path17-0" />
      <path
         style="fill:none;fill-opacity:1;stroke:#000000;stroke-width:1.04272;stroke-linecap:round;stroke-linejoin:round;stroke-dasharray:none;stroke-dashoffset:6;stroke-opacity:1;paint-order:markers stroke fill"
         d="m 119.89057,103.65144 -8.72979,-0.50494"
         id="path18-5"
         sodipodi:nodetypes="cc" />
      <path
         style="fill:none;fill-opacity:1;stroke:#000000;stroke-width:1.04272;stroke-linecap:round;stroke-linejoin:round;stroke-dasharray:none;stroke-dashoffset:6;stroke-opacity:1;paint-order:markers stroke fill"
         d="m 121.42997,106.65005 -11.0994,1.34257"
         id="path19-5"
         sodipodi:nodetypes="cc" />
    </g>
    <text
       xml:space="preserve"
       style="font-size:10.5833px;line-height:1;font-family:DFGPOP1-W12;-inkscape-font-specification:DFGPOP1-W12;text-align:start;text-decoration-color:#000000;letter-spacing:-0.0846667px;word-spacing:0.00194749px;writing-mode:lr-tb;direction:ltr;text-anchor:start;fill:#000000;fill-opacity:1;stroke-width:0.79375;stroke-linecap:square;stroke-dashoffset:6;stroke-opacity:0.497159;paint-order:markers stroke fill"
       x="106.62708"
       y="16.293875"
       id="text1"><tspan
         sodipodi:role="line"
         id="tspan1"
         style="font-style:normal;font-variant:normal;font-weight:normal;font-stretch:normal;font-size:10.5833px;font-family:DFPGothic-UB;-inkscape-font-specification:DFPGothic-UB;fill:#000000;fill-opacity:1;stroke-width:0.79375"
         x="106.62708"
         y="16.293875">音節/Syllable</tspan></text>
    <text
       xml:space="preserve"
       style="font-size:10.5833px;line-height:1;font-family:DFGPOP1-W12;-inkscape-font-specification:DFGPOP1-W12;text-align:start;text-decoration-color:#000000;letter-spacing:-0.0846667px;word-spacing:0.00194749px;writing-mode:lr-tb;direction:ltr;text-anchor:start;fill:#000000;fill-opacity:1;stroke-width:0.79375;stroke-linecap:square;stroke-dashoffset:6;stroke-opacity:0.497159;paint-order:markers stroke fill"
       x="9.7895823"
       y="86.375549"
       id="text2"><tspan
         sodipodi:role="line"
         id="tspan2"
         style="font-style:normal;font-variant:normal;font-weight:normal;font-stretch:normal;font-size:10.5833px;font-family:DFPGothic-UB;-inkscape-font-specification:DFPGothic-UB;fill:#000000;fill-opacity:1;stroke-width:0.79375"
         x="9.7895823"
         y="86.375549">頭子音/Onset</tspan></text>
    <text
       xml:space="preserve"
       style="font-size:10.5833px;line-height:1;font-family:DFGPOP1-W12;-inkscape-font-specification:DFGPOP1-W12;text-align:start;text-decoration-color:#000000;letter-spacing:-0.0846667px;word-spacing:0.00194749px;writing-mode:lr-tb;direction:ltr;text-anchor:start;fill:#000000;fill-opacity:1;stroke-width:0.79375;stroke-linecap:square;stroke-dashoffset:6;stroke-opacity:0.497159;paint-order:markers stroke fill"
       x="147.90208"
       y="53.600117"
       id="text3"><tspan
         sodipodi:role="line"
         id="tspan3"
         style="font-style:normal;font-variant:normal;font-weight:normal;font-stretch:normal;font-size:10.5833px;font-family:DFPGothic-UB;-inkscape-font-specification:DFPGothic-UB;fill:#000000;fill-opacity:1;stroke-width:0.79375"
         x="147.90208"
         y="53.600117">音節基/Rime</tspan></text>
    <text
       xml:space="preserve"
       style="font-size:10.5833px;line-height:1;font-family:DFGPOP1-W12;-inkscape-font-specification:DFGPOP1-W12;text-align:start;text-decoration-color:#000000;letter-spacing:-0.0846667px;word-spacing:0.00194749px;writing-mode:lr-tb;direction:ltr;text-anchor:start;fill:#550000;stroke-width:0.79375;stroke-linecap:square;stroke-dashoffset:6;stroke-opacity:0.497159;paint-order:markers stroke fill"
       x="82.285408"
       y="17.991667"
       id="text4"><tspan
         sodipodi:role="line"
         id="tspan4"
         style="font-style:normal;font-variant:normal;font-weight:normal;font-stretch:normal;font-size:10.5833px;font-family:DFPGothic-UB;-inkscape-font-specification:DFPGothic-UB;stroke-width:0.79375"
         x="82.285408"
         y="17.991667" /></text>
    <text
       xml:space="preserve"
       style="font-size:10.5833px;line-height:1;font-family:DFGPOP1-W12;-inkscape-font-specification:DFGPOP1-W12;text-align:start;text-decoration-color:#000000;letter-spacing:-0.0846667px;word-spacing:0.00194749px;writing-mode:lr-tb;direction:ltr;text-anchor:start;fill:#000000;fill-opacity:1;stroke-width:0.79375;stroke-linecap:square;stroke-dashoffset:6;stroke-opacity:0.497159;paint-order:markers stroke fill"
       x="185.73749"
       y="86.375549"
       id="text5"><tspan
         sodipodi:role="line"
         id="tspan5"
         style="font-style:normal;font-variant:normal;font-weight:normal;font-stretch:normal;font-size:10.5833px;font-family:DFPGothic-UB;-inkscape-font-specification:DFPGothic-UB;fill:#000000;fill-opacity:1;stroke-width:0.79375"
         x="185.73749"
         y="86.375549">末子音/Coda</tspan></text>
    <text
       xml:space="preserve"
       style="font-size:10.5833px;line-height:1;font-family:DFGPOP1-W12;-inkscape-font-specification:DFGPOP1-W12;text-align:start;text-decoration-color:#000000;letter-spacing:-0.0846667px;word-spacing:0.00194749px;writing-mode:lr-tb;direction:ltr;text-anchor:start;fill:#000000;fill-opacity:1;stroke-width:0.79375;stroke-linecap:square;stroke-dashoffset:6;stroke-opacity:0.497159;paint-order:markers stroke fill"
       x="97.102081"
       y="86.354881"
       id="text6"><tspan
         sodipodi:role="line"
         id="tspan6"
         style="font-style:normal;font-variant:normal;font-weight:normal;font-stretch:normal;font-size:10.5833px;font-family:DFPGothic-UB;-inkscape-font-specification:DFPGothic-UB;fill:#000000;fill-opacity:1;stroke-width:0.79375"
         x="97.102081"
         y="86.354881">音節核/Nucleus</tspan></text>
    <path
       style="fill:none;stroke:#000000;stroke-width:0.794015;stroke-linecap:square;stroke-dasharray:none;stroke-dashoffset:6;stroke-opacity:1;paint-order:markers stroke fill"
       d="m 128.85208,71.856373 c -0.66284,-14.284989 37.947,-1.525067 45.24486,-13.791256 8.71373,13.356662 46.28259,-0.622116 46.30097,12.203756"
       id="path6"
       sodipodi:nodetypes="ccc" />
    <path
       style="fill:none;stroke:#000000;stroke-width:0.794015;stroke-linecap:square;stroke-dasharray:none;stroke-dashoffset:6;stroke-opacity:1;paint-order:markers stroke fill"
       d="m 42.862496,39.048039 c -0.66284,-14.284989 81.603254,-1.525067 88.901114,-13.791256 8.71373,13.356662 46.28259,-0.622116 46.30097,12.203756"
       id="path7"
       sodipodi:nodetypes="ccc" />
    <g
       id="g15"
       transform="translate(-0.78103626,-3.7985351)">
      <path
         id="path9"
         style="stroke:#000000;stroke-width:0.548996;stroke-linecap:square;stroke-dashoffset:6;paint-order:markers stroke fill"
         d="m 251.07204,20.483247 c 0.45402,5.359415 -2.80192,6.450586 -7.09096,6.928999 -4.28903,0.478412 -8.30935,-0.199407 -8.441,-5.19651 -0.0798,-3.027864 2.80192,-6.450582 7.09095,-6.928997 4.28903,-0.478415 8.19426,2.283886 8.44101,5.196508 z"
         sodipodi:nodetypes="sssss" />
      <path
         id="ellipse10"
         style="stroke:#000000;stroke-width:0.634072;stroke-linecap:square;stroke-dashoffset:6;paint-order:markers stroke fill"
         d="m 249.55098,32.185321 c -0.0839,4.694211 3.02197,9.22565 -8.09407,9.303451 -11.11604,0.0778 -6.8234,-7.141348 -6.01427,-10.410349 0.80913,-3.269001 4.80111,-6.760194 8.64012,-5.766842 3.0834,0.630446 5.55215,2.179529 5.46822,6.87374 z"
         sodipodi:nodetypes="zzzcz" />
      <path
         style="fill:#000000;fill-opacity:1;stroke:#000000;stroke-width:0.548996;stroke-linecap:square;stroke-dasharray:none;stroke-dashoffset:6;stroke-opacity:1;paint-order:markers stroke fill"
         d="m 245.63704,16.815578 3.31385,-4.319639 1.46425,6.788003 z"
         id="path13"
         sodipodi:nodetypes="cccc" />
      <path
         style="fill:#000000;fill-opacity:1;stroke:#000000;stroke-width:0.548996;stroke-linecap:square;stroke-dasharray:none;stroke-dashoffset:6;stroke-opacity:1;paint-order:markers stroke fill"
         d="m 240.3298,16.802659 -4.48618,-3.081927 0.70514,6.908457 z"
         id="path14"
         sodipodi:nodetypes="cccc" />
      <path
         style="fill:none;fill-opacity:1;stroke:#000000;stroke-width:1.82937;stroke-linecap:round;stroke-linejoin:round;stroke-dasharray:none;stroke-dashoffset:6;stroke-opacity:1;paint-order:markers stroke fill"
         d="m 239.95277,39.451619 c -2.02137,0.498772 -4.23617,1.553352 -6.18691,0.949615 -1.95074,-0.603739 -3.02744,-2.860012 -2.57501,-4.854321 0.27862,-1.775695 0.61878,-3.751729 -0.49445,-5.333135 -0.80681,-1.615277 -2.98492,-2.269069 -4.42321,-1.072935 -0.68123,0.456312 -1.24187,1.065718 -1.76431,1.69165"
         id="path15"
         sodipodi:nodetypes="czcccc" />
      <path
         style="fill:none;fill-opacity:1;stroke:#000000;stroke-width:0.529167;stroke-linecap:round;stroke-linejoin:round;stroke-dasharray:none;stroke-dashoffset:6;stroke-opacity:1;paint-order:markers stroke fill"
         d="m 249.77092,20.67993 4.08333,-0.450626"
         id="path16"
         sodipodi:nodetypes="cc" />
      <path
         style="fill:none;fill-opacity:1;stroke:#000000;stroke-width:0.529167;stroke-linecap:round;stroke-linejoin:round;stroke-dasharray:none;stroke-dashoffset:6;stroke-opacity:1;paint-order:markers stroke fill"
         d="m 249.56903,22.194156 4.34078,0.706638"
         id="path17" />
      <path
         style="fill:none;fill-opacity:1;stroke:#000000;stroke-width:0.529167;stroke-linecap:round;stroke-linejoin:round;stroke-dasharray:none;stroke-dashoffset:6;stroke-opacity:1;paint-order:markers stroke fill"
         d="m 235.7391,20.478034 -2.05267,-0.19021"
         id="path18"
         sodipodi:nodetypes="cc" />
      <path
         style="fill:none;fill-opacity:1;stroke:#000000;stroke-width:0.529167;stroke-linecap:round;stroke-linejoin:round;stroke-dasharray:none;stroke-dashoffset:6;stroke-opacity:1;paint-order:markers stroke fill"
         d="m 235.13341,22.396052 -1.8683,0.351117"
         id="path19"
         sodipodi:nodetypes="cc" />
    </g>
    <g
       id="g2"
       style="fill:#ffffff;fill-opacity:1"
       transform="translate(-3.8287125,66.767066)">
      <g
         id="g1">
        <circle
           style="fill:#ffffff;fill-opacity:1;stroke:#000000;stroke-width:0.529167;stroke-linecap:round;stroke-linejoin:round;stroke-dasharray:none;stroke-dashoffset:6;paint-order:markers fill stroke"
           id="circle1"
           cx="49.024006"
           cy="48.415012"
           r="13.229166" />
        <text
           xml:space="preserve"
           style="font-size:16.4921px;line-height:1;font-family:DFPGothic-UB;-inkscape-font-specification:DFPGothic-UB;text-align:start;text-decoration-color:#000000;letter-spacing:-0.131937px;word-spacing:0.0030348px;writing-mode:lr-tb;direction:ltr;text-anchor:start;fill:#070000;fill-opacity:1;stroke:#000000;stroke-width:0.824609;stroke-linecap:round;stroke-linejoin:round;stroke-dashoffset:6;paint-order:markers stroke fill"
           x="42.886555"
           y="54.402439"
           id="text1-6"><tspan
             sodipodi:role="line"
             id="tspan1-9"
             style="fill:#070000;fill-opacity:1;stroke:none;stroke-width:0.824609"
             x="42.886555"
             y="54.402439">C</tspan></text>
      </g>
    </g>
    <g
       id="g3"
       transform="matrix(0.87151798,0,0,0.87151798,2.8431435,105.77579)">
      <rect
         style="fill:#ffffff;fill-opacity:1;stroke:#000000;stroke-width:0.529167;stroke-linecap:round;stroke-linejoin:round;stroke-dasharray:none;stroke-dashoffset:6;stroke-opacity:1;paint-order:markers fill stroke"
         id="rect2"
         width="12.360734"
         height="10.622508"
         x="42.528122"
         y="58.427547"
         rx="0.55944639"
         ry="0.55944639" />
      <text
         xml:space="preserve"
         style="font-size:7.45926px;line-height:1;font-family:DFPGothic-UB;-inkscape-font-specification:DFPGothic-UB;text-align:start;text-decoration-color:#000000;letter-spacing:-0.0596743px;word-spacing:0.00137262px;writing-mode:lr-tb;direction:ltr;text-anchor:start;fill:none;stroke:#000000;stroke-width:0.529167;stroke-linecap:round;stroke-linejoin:round;stroke-dasharray:none;stroke-dashoffset:6;paint-order:markers stroke fill"
         x="45.041794"
         y="66.469917"
         id="text2-2"><tspan
           sodipodi:role="line"
           id="tspan2-7"
           style="fill:#000000;fill-opacity:1;stroke:none;stroke-width:0.529167;stroke-dasharray:none"
           x="45.041794"
           y="66.469917">頭</tspan></text>
    </g>
    <g
       id="g5"
       style="fill:#ffffff;fill-opacity:1"
       transform="translate(84.690052,67.464299)">
      <g
         id="g4">
        <circle
           style="fill:#ffffff;fill-opacity:1;stroke:#000000;stroke-width:0.529167;stroke-linecap:round;stroke-linejoin:round;stroke-dasharray:none;stroke-dashoffset:6;paint-order:markers fill stroke"
           id="circle3"
           cx="49.024006"
           cy="48.415012"
           r="13.229166" />
        <text
           xml:space="preserve"
           style="font-size:16.4921px;line-height:1;font-family:DFPGothic-UB;-inkscape-font-specification:DFPGothic-UB;text-align:start;text-decoration-color:#000000;letter-spacing:-0.131937px;word-spacing:0.0030348px;writing-mode:lr-tb;direction:ltr;text-anchor:start;fill:#070000;fill-opacity:1;stroke:#000000;stroke-width:0.824609;stroke-linecap:round;stroke-linejoin:round;stroke-dashoffset:6;paint-order:markers stroke fill"
           x="42.886555"
           y="54.402439"
           id="text3-9"><tspan
             sodipodi:role="line"
             id="tspan3-7"
             style="fill:#070000;fill-opacity:1;stroke:none;stroke-width:0.824609"
             x="42.886555"
             y="54.402439">A</tspan></text>
      </g>
    </g>
    <g
       id="g6"
       transform="matrix(0.87151798,0,0,0.87151798,91.361908,106.47302)">
      <rect
         style="fill:#ffffff;fill-opacity:1;stroke:#000000;stroke-width:0.529167;stroke-linecap:round;stroke-linejoin:round;stroke-dasharray:none;stroke-dashoffset:6;stroke-opacity:1;paint-order:markers fill stroke"
         id="rect5"
         width="12.360734"
         height="10.622508"
         x="42.528122"
         y="58.427547"
         rx="0.55944639"
         ry="0.55944639" />
      <text
         xml:space="preserve"
         style="font-size:7.45926px;line-height:1;font-family:DFPGothic-UB;-inkscape-font-specification:DFPGothic-UB;text-align:start;text-decoration-color:#000000;letter-spacing:-0.0596743px;word-spacing:0.00137262px;writing-mode:lr-tb;direction:ltr;text-anchor:start;fill:none;stroke:#000000;stroke-width:0.529167;stroke-linecap:round;stroke-linejoin:round;stroke-dasharray:none;stroke-dashoffset:6;paint-order:markers stroke fill"
         x="45.041794"
         y="66.469917"
         id="text5-3"><tspan
           sodipodi:role="line"
           id="tspan5-2"
           style="fill:#000000;fill-opacity:1;stroke:none;stroke-width:0.529167;stroke-dasharray:none"
           x="45.041794"
           y="66.469917">核</tspan></text>
    </g>
    <g
       id="g8"
       style="fill:#ffffff;fill-opacity:1"
       transform="translate(168.74836,67.464299)">
      <g
         id="g7">
        <circle
           style="fill:#ffffff;fill-opacity:1;stroke:#000000;stroke-width:0.529167;stroke-linecap:round;stroke-linejoin:round;stroke-dasharray:none;stroke-dashoffset:6;paint-order:markers fill stroke"
           id="circle6"
           cx="49.024006"
           cy="48.415012"
           r="13.229166" />
        <text
           xml:space="preserve"
           style="font-size:16.4921px;line-height:1;font-family:DFPGothic-UB;-inkscape-font-specification:DFPGothic-UB;text-align:start;text-decoration-color:#000000;letter-spacing:-0.131937px;word-spacing:0.0030348px;writing-mode:lr-tb;direction:ltr;text-anchor:start;fill:#070000;fill-opacity:1;stroke:#000000;stroke-width:0.824609;stroke-linecap:round;stroke-linejoin:round;stroke-dashoffset:6;paint-order:markers stroke fill"
           x="42.886555"
           y="54.402439"
           id="text6-4"><tspan
             sodipodi:role="line"
             id="tspan6-2"
             style="fill:#070000;fill-opacity:1;stroke:none;stroke-width:0.824609"
             x="42.886555"
             y="54.402439">T</tspan></text>
      </g>
    </g>
    <g
       id="g11"
       transform="matrix(0.87151798,0,0,0.87151798,175.42021,106.47302)">
      <rect
         style="fill:#ffffff;fill-opacity:1;stroke:#000000;stroke-width:0.529167;stroke-linecap:round;stroke-linejoin:round;stroke-dasharray:none;stroke-dashoffset:6;stroke-opacity:1;paint-order:markers fill stroke"
         id="rect8"
         width="12.360734"
         height="10.622508"
         x="42.528122"
         y="58.427547"
         rx="0.55944639"
         ry="0.55944639" />
      <text
         xml:space="preserve"
         style="font-size:7.45926px;line-height:1;font-family:DFPGothic-UB;-inkscape-font-specification:DFPGothic-UB;text-align:start;text-decoration-color:#000000;letter-spacing:-0.0596743px;word-spacing:0.00137262px;writing-mode:lr-tb;direction:ltr;text-anchor:start;fill:none;stroke:#000000;stroke-width:0.529167;stroke-linecap:round;stroke-linejoin:round;stroke-dasharray:none;stroke-dashoffset:6;paint-order:markers stroke fill"
         x="45.041794"
         y="66.469917"
         id="text10"><tspan
           sodipodi:role="line"
           id="tspan10"
           style="fill:#000000;fill-opacity:1;stroke:none;stroke-width:0.529167;stroke-dasharray:none"
           x="45.041794"
           y="66.469917">末</tspan></text>
    </g>
    <g
       id="g167"
       transform="matrix(0.86436728,0,0,0.86436728,21.388421,28.204249)">
      <path
         id="path165"
         style="opacity:1;stroke:#000000;stroke-width:1.32292;stroke-linecap:round;stroke-linejoin:round;stroke-dasharray:none;stroke-opacity:1;paint-order:markers stroke fill"
         d="m 21.344303,76.466774 c 4.310989,-1.972461 8.439421,-1.149535 12.541956,0 0.649342,0.181947 1.171838,0.544419 1.21724,1.21724 0.105654,1.565719 0.105654,5.58789 0,7.153609 -0.0454,0.672821 -0.542889,1.21724 -1.21724,1.21724 H 21.344303 c -0.674351,0 -1.076547,-0.557729 -1.21724,-1.21724 -0.424593,-1.990312 -0.189341,-5.777232 0,-7.153609 0.0919,-0.668059 0.604027,-0.936669 1.21724,-1.21724 z"
         sodipodi:nodetypes="sssssssss" />
      <path
         style="opacity:1;fill:#ff0100;fill-opacity:1;stroke:none;stroke-width:0.529167;stroke-linecap:round;stroke-linejoin:round;stroke-opacity:1;paint-order:markers stroke fill"
         d="m 20.206304,85.103979 c -0.633923,-2.218731 -0.237721,-0.554683 -0.237721,-2.139491 2.860926,-0.717957 12.46337,-0.984966 15.214159,0.237721 -0.237723,2.456453 -0.158483,2.139491 -0.158483,2.139491 z"
         id="path166"
         sodipodi:nodetypes="ccccc" />
      <path
         style="opacity:1;fill:#000000;fill-opacity:1;stroke:#000000;stroke-width:1.32292;stroke-linecap:round;stroke-linejoin:round;stroke-dasharray:none;stroke-opacity:1;paint-order:markers stroke fill"
         d="m 16.386924,85.501021 0.604276,2.255186 c 6.9381,-0.806361 13.741547,-0.670154 20.468716,0 l 0.647036,-2.265929 c -7.158751,-0.646484 -14.352217,-1.015249 -21.720028,0.01074 z"
         id="path167"
         sodipodi:nodetypes="cccccc" />
    </g>
    <g
       id="g190"
       transform="matrix(1.1729534,0,0,1.1729534,185.54399,-13.346736)">
      <g
         id="g189"
         transform="translate(-2.1429414,3.9797483)"
         style="stroke:#000000;stroke-opacity:1">
        <g
           id="g188"
           transform="translate(2.2538068,-0.75126894)">
          <path
             style="fill:#000000;fill-opacity:1;stroke:#333333;stroke-width:1.32292;stroke-linecap:round;stroke-linejoin:round;stroke-dasharray:none;stroke-opacity:1;paint-order:markers stroke fill"
             d="m 23.224275,123.04371 c 0,0 -0.08092,-0.73715 -0.08092,-0.77647 0,-0.0393 0.05058,-0.18673 0.07081,-0.2752 0.03034,-0.2457 -0.08092,-0.19656 -0.07081,-0.56021 0.01009,-0.36366 -0.04046,-0.98286 -0.04046,-1.15977 0,-0.17691 -0.09103,-0.58972 -0.09103,-1.12045 0.577295,-0.84825 2.55028,-0.68822 2.9232,-0.0295 0,0.47177 -0.06069,0.98286 -0.07081,1.22856 -0.08092,0.26538 -0.01009,0.33417 -0.151722,0.42264 0.06069,0.25553 0.283216,0.77645 0.09104,1.10079 0.09103,0.44228 0.151725,0.73713 0.182068,0.8256 -0.05057,0.31452 0.01009,0.58971 0,0.84525 0.262988,0.26537 0.525975,1.01234 -0.09103,1.40547 -0.647353,0.29486 -0.617009,0.30469 -0.768731,0.36367 -0.141609,-0.12778 -0.273102,0.0197 -0.384366,0.10813 -0.202296,0.15726 -0.434939,0.2064 -0.93057,0.89439 -0.475398,0.73714 -0.374247,0.72732 -0.819305,1.01234 -0.445053,0.28503 -1.021603,0.58972 -1.567806,0.6192 -0.546203,0.0295 -2.107291,-0.0245 -2.683901,-0.27537 -0.576609,-0.25089 -0.635499,-0.54519 -0.80919,-0.70766 -0.537567,-0.50284 -0.825581,-1.25563 -0.684007,-1.53083 0.141609,-0.2752 0.44256,-1.19534 0.705547,-1.32312 0.262987,-0.12777 0.671231,-0.36219 0.873528,-0.37202 0.202298,-0.0103 0.452353,-0.0364 0.903043,-0.008 0.352085,0.022 1.856787,0.70842 2.150118,0.70842 0.161837,-0.17691 0.182067,-0.30468 0.475397,-0.30468 -0.192181,-0.2752 -0.0708,-0.29486 0.06069,-0.29486 0.131495,0 0.151723,-0.0103 0.394481,-0.0103 0.0708,-0.22606 0.222528,-0.62902 0.41471,-0.78628 z"
             id="path185"
             sodipodi:nodetypes="csccscccccccccccscsssscsccsccc" />
          <path
             style="fill:#000000;fill-opacity:1;stroke:#333333;stroke-width:1.32292;stroke-linecap:round;stroke-linejoin:round;stroke-dasharray:none;stroke-opacity:1;paint-order:markers stroke fill"
             d="m 29.655751,119.13563 c 0,-0.85119 3.151889,-0.58761 3.748191,0.0237 -0.206881,1.02877 -0.255559,1.25343 -0.279896,1.44263 -0.02435,0.18921 -0.243391,0.89871 -0.839693,1.45447 0.109527,0.31927 0.401593,0.43753 0.194712,1.01695 0.279896,0.0946 0.352912,0.15373 0.425931,0.40204 0.21905,0.30745 0.279897,0.49665 0.474609,0.67402 0.608472,0.29563 1.680214,-0.3199 1.923605,-0.2726 0.243391,-0.26778 0.683824,-0.30045 0.769012,-0.28863 0.08519,0.0118 0.336739,0.14504 0.486776,0.24832 0.126011,0.0868 0.146033,0.071 0.340745,0.30745 0.194712,0.2365 0.340743,0.44935 0.340743,0.68585 0,0.23649 -0.06402,1.85015 -0.25873,2.063 -0.194708,0.21284 -0.949215,0.81591 -1.533348,0.82774 -0.584134,0.0118 -1.813249,-0.0591 -2.336533,-0.39022 -0.523288,-0.3311 -0.92488,-0.88687 -1.168267,-1.15884 -0.243391,-0.27198 -0.791016,-0.87505 -0.949219,-0.9933 -0.158203,-0.11825 -0.133862,-0.23649 -0.62064,-0.21284 -0.438103,-0.17738 -0.754505,-0.29563 -0.90054,-0.43753 -0.146033,-0.14189 -0.292068,-0.0947 -0.292068,-0.39022 0,-0.29562 0.03651,-0.49664 0.267728,-0.69767 -0.06085,-0.57942 -0.08519,-1.48994 -0.01217,-2.28222 0.08519,-0.94598 0.219049,-2.02206 0.219049,-2.02206 z"
             id="path186"
             sodipodi:nodetypes="ccccccccsasssscsscsscccc" />
          <path
             style="opacity:1;fill:none;fill-opacity:1;stroke:#ff0000;stroke-width:0.79375;stroke-linecap:round;stroke-linejoin:round;stroke-dasharray:none;stroke-opacity:1;paint-order:markers stroke fill"
             d="m 22.806415,123.04479 c 0.438094,1.24127 1.89841,1.02223 3.285711,0.36508"
             id="path187" />
          <path
             style="opacity:1;fill:none;fill-opacity:1;stroke:#ff0000;stroke-width:0.79375;stroke-linecap:round;stroke-linejoin:round;stroke-dasharray:none;stroke-opacity:1;paint-order:markers stroke fill"
             d="m 29.259206,123.35287 c 1.323833,0.93319 3.400316,0.82968 3.863367,-0.0585"
             id="path188"
             sodipodi:nodetypes="cc" />
        </g>
      </g>
    </g>
  </g>
</svg>
